HIERARCHY
ROOT Hips
{
	OFFSET -3.958830 18.904000 13.208200
	CHANNELS 6 Xposition Yposition Zposition Zrotation Yrotation Xrotation 
	JOINT LHipJoint
	{
		OFFSET 0.000000 0.000000 0.000000
		CHANNELS 3 Zrotation Yrotation Xrotation
		JOINT LeftUpLeg
		{
			OFFSET 1.800000 -1.400000 0.085000
			CHANNELS 3 Zrotation Yrotation Xrotation
			JOINT LeftLeg
			{
				OFFSET 2.215000 -6.000000 0.000000
				CHANNELS 3 Zrotation Yrotation Xrotation
				JOINT LeftFoot
				{
					OFFSET 2.500000 -6.900000 0.000000
					CHANNELS 3 Zrotation Yrotation Xrotation
					JOINT LeftToeBase
					{
						OFFSET 0.200000 -0.500000 1.950000
						CHANNELS 3 Zrotation Yrotation Xrotation
						End Site
						{
							OFFSET 0.000000 0.000000 0.000000
						}
					}
				}
			}
		}
	}
	JOINT RHipJoint
	{
		OFFSET 0.000000 0.000000 0.000000
		CHANNELS 3 Zrotation Yrotation Xrotation
		JOINT RightUpLeg
		{
			OFFSET -1.800000 -1.400000 0.085000
			CHANNELS 3 Zrotation Yrotation Xrotation
			JOINT RightLeg
			{
				OFFSET -2.215000 -6.000000 0.000000
				CHANNELS 3 Zrotation Yrotation Xrotation
				JOINT RightFoot
				{
					OFFSET -2.500000 -6.900000 0.000000
					CHANNELS 3 Zrotation Yrotation Xrotation
					JOINT RightToeBase
					{
						OFFSET -0.200000 -0.500000 1.950000
						CHANNELS 3 Zrotation Yrotation Xrotation
						End Site
						{
							OFFSET 0.000000 0.000000 0.000000
						}
					}
				}
			}
		}
	}
	JOINT LowerBack
	{
		OFFSET 0.000000 0.000000 0.000000
		CHANNELS 3 Zrotation Yrotation Xrotation
		JOINT Spine
		{
			OFFSET -0.087000 1.940000 -0.288900
			CHANNELS 3 Zrotation Yrotation Xrotation
			JOINT Spine1
			{
				OFFSET 0.000000 1.950000 0.060000
				CHANNELS 3 Zrotation Yrotation Xrotation
				JOINT Neck
				{
					OFFSET 0.000000 0.000000 0.000000
					CHANNELS 3 Zrotation Yrotation Xrotation
					JOINT Neck1
					{
						OFFSET 0.000000 1.600000 0.340000
						CHANNELS 3 Zrotation Yrotation Xrotation
						JOINT Head
						{
							OFFSET 0.000000 1.667000 -0.240000
							CHANNELS 3 Zrotation Yrotation Xrotation
							End Site
							{
								OFFSET 0.000000 0.000000 0.000000
							}
						}
					}
				}
				JOINT LeftShoulder
				{
					OFFSET 0.000000 0.000000 0.000000
					CHANNELS 3 Zrotation Yrotation Xrotation
					JOINT LeftArm
					{
						OFFSET 2.700000 1.550000 -0.730000
						CHANNELS 3 Zrotation Yrotation Xrotation
						JOINT LeftForeArm
						{
							OFFSET 5.450000 0.000000 0.000000
							CHANNELS 3 Zrotation Yrotation Xrotation
							JOINT LeftHand
							{
								OFFSET 3.450000 0.000000 0.000000
								CHANNELS 3 Zrotation Yrotation Xrotation
								JOINT LeftHandIndex1
								{
									OFFSET 0.750000 0.000000 0.000000
									CHANNELS 3 Zrotation Yrotation Xrotation
									End Site
									{
										OFFSET 0.000000 0.000000 0.000000
									}
								}
							}
						}
					}
				}
				JOINT RightShoulder
				{
					OFFSET 0.000000 0.000000 0.000000
					CHANNELS 3 Zrotation Yrotation Xrotation
					JOINT RightArm
					{
						OFFSET -2.700000 1.550000 -0.730000
						CHANNELS 3 Zrotation Yrotation Xrotation
						JOINT RightForeArm
						{
							OFFSET -5.450000 0.000000 0.000000
							CHANNELS 3 Zrotation Yrotation Xrotation
							JOINT RightHand
							{
								OFFSET -3.450000 0.000000 0.000000
								CHANNELS 3 Zrotation Yrotation Xrotation
								JOINT RightHandIndex1
								{
									OFFSET -0.750000 0.000000 0.000000
									CHANNELS 3 Zrotation Yrotation Xrotation
									End Site
									{
										OFFSET 0.000000 0.000000 0.000000
									}
								}
							}
						}
					}
				}
			}
		}
	}
}
MOTION
Frames: 9
Frame Time: 0.016667
-1.814230 17.054500 -2.422030 1.106429 9.840311 -4.582680 -14.277269 12.283120 3.055797 2.288827 -1.914433 -3.246529 -13.166927 5.085927 4.919175 1.860577 3.159194 3.859407 2.478320 1.852920 2.592280 19.176935 -11.661613 2.633913 -5.554586 -0.293883 -8.941601 5.945064 -4.318741 11.422281 -1.356625 -3.512399 2.520645 0.267120 -0.947770 1.410090 -6.308410 0.963111 -7.543901 15.992299 -3.740113 21.489809 -18.166628 -6.654867 -9.750340 -11.713952 -4.591691 -13.313733 -15.008608 14.195323 29.173552 14.290130 10.717550 -4.841100 16.289280 2.681698 5.780174 8.605329 -32.222546 -7.739628 42.193272 1.562553 -2.405399 -2.623379 4.725534 0.060160 -0.439660 1.218800 0.599500 8.908866 -14.844169 0.308881 59.580090 -29.625224 -14.814097 41.821831 22.146596 1.890156 3.359506 -3.077075 1.579850 -1.553770 -2.206710 0.281760 
-1.812970 17.062280 -2.434250 1.232506 10.735510 -5.198315 -14.278743 12.245947 3.043072 2.448021 -1.922357 -2.780435 -13.760738 5.306241 5.454832 1.827277 3.275868 3.803050 2.491040 1.886230 2.578560 19.189216 -11.648165 2.626099 -5.616553 -0.477870 -8.274934 6.019418 -4.393463 11.173764 -1.392475 -3.571490 2.504730 0.301690 -0.974050 1.397210 -6.341311 0.936257 -7.576406 15.491698 -4.236258 22.040509 -18.075430 -6.578138 -9.447571 -11.757228 -4.656672 -13.387759 -15.680139 14.255175 29.567885 14.753070 10.696890 -6.654320 13.750242 0.517860 5.761425 7.629977 -32.200442 -8.718883 49.464443 1.988884 -2.696518 -2.674433 4.648796 0.114430 -0.459300 1.244480 0.597440 11.458607 -12.535025 0.694579 58.730272 -28.429286 -15.037644 39.900451 19.644423 0.590388 3.352927 -3.026824 1.558580 -1.537140 -2.203640 0.264240 
-1.802800 17.061200 -2.452430 1.272608 11.651816 -6.131021 -14.302806 12.269689 3.068895 2.561426 -1.886190 -1.737803 -13.727680 5.320647 5.110815 1.899710 3.308106 3.796547 2.495500 1.819590 2.704460 19.159131 -11.653576 2.586567 -6.429797 -0.797227 -7.733454 7.087716 -4.922021 12.157501 -1.438617 -3.679007 2.440971 0.220800 -1.057500 1.386340 -6.291569 0.788168 -7.650249 15.174238 -5.027298 23.423565 -18.181489 -6.867661 -9.158800 -10.679463 -4.387066 -13.809773 -16.540953 13.243128 31.707957 13.603690 10.829070 -6.456170 11.274861 -1.838016 5.752814 6.384274 -32.098766 -9.831793 57.587636 2.957211 -2.646886 -2.669419 4.611668 0.159340 -0.525800 1.282700 0.547510 11.850293 -10.141931 1.575284 60.647792 -26.995888 -16.192547 36.708229 18.186778 -0.319746 3.476584 -2.947589 1.573320 -1.580660 -2.237860 0.218270 
-1.809110 17.038970 -2.472500 0.967938 12.749247 -7.055968 -14.359496 12.302569 3.085812 3.301401 -1.989339 -0.969159 -14.615599 5.576345 5.268991 1.925249 3.535502 3.732745 2.477100 1.779060 2.739980 19.121644 -11.535402 2.526193 -6.483524 -1.082938 -7.269659 8.130625 -5.421786 13.091149 -1.456776 -3.804658 2.395583 0.200120 -1.070380 1.360360 -6.185460 0.378628 -7.668523 14.491353 -6.179291 23.882191 -17.902363 -6.521455 -7.055704 -10.123183 -4.344723 -14.499487 -17.114098 12.977728 32.221531 12.801010 11.062170 -6.481840 9.370457 -5.910778 5.967850 6.347525 -31.563655 -11.936014 64.286681 7.788026 -0.905615 -2.729437 4.579137 0.186500 -0.538040 1.278350 0.519500 12.465086 -5.929178 2.898205 63.509838 -25.386150 -18.267706 33.457743 16.891282 -1.381687 3.524455 -2.875306 1.544540 -1.566810 -2.232930 0.186900 
-1.796560 17.013910 -2.457170 0.548657 13.244804 -4.411227 -14.402199 12.398313 3.084819 3.371673 -2.294031 -3.736372 -14.612339 5.376989 5.222145 1.840880 3.383087 3.781165 2.462120 1.775540 2.638130 19.078886 -11.373677 2.520235 -5.841103 -0.643378 -9.940036 9.220986 -5.578979 13.807656 -1.371661 -3.693653 2.431290 0.225650 -0.986440 1.349280 -6.083050 0.030507 -7.492014 16.518517 -5.884347 20.830827 -20.141835 -6.740107 -9.100214 -9.216083 -5.112447 -13.966126 -17.907988 13.070071 30.043921 15.034290 8.929710 -4.489840 9.279699 -2.053120 6.021069 0.592112 -32.499003 -8.473681 69.736219 -1.111410 -5.239686 -2.730685 4.575350 0.152050 -0.502520 1.206790 0.560510 11.042261 -9.262267 1.640999 61.918406 -26.598928 -15.738191 34.668710 7.993237 -3.017169 3.552595 -2.862052 1.521890 -1.550410 -2.202420 0.223690 
-1.790570 17.012630 -2.425590 1.317198 12.525296 -2.331734 -14.421805 12.573770 3.180045 2.163065 -2.279645 -5.088164 -13.963097 5.074150 4.693797 1.819066 3.137949 3.859247 2.455150 1.759400 2.601840 19.018613 -11.334277 2.503825 -6.372702 -0.292225 -12.470588 9.452083 -5.746259 15.324481 -1.313725 -3.573523 2.450403 0.210920 -0.976640 1.334130 -5.968448 -0.254840 -7.427880 15.993058 -4.862876 19.580047 -20.312486 -7.620551 -12.377035 -8.297692 -5.820139 -13.824065 -19.489581 13.774132 28.568028 16.993820 7.720080 -3.405870 9.729065 2.116572 6.255791 -6.841314 -32.780658 -4.531357 75.324618 -7.479126 -9.031950 -2.704006 4.579045 0.158290 -0.526540 1.191260 0.577900 9.612112 -13.227517 0.388491 60.015135 -27.920261 -13.780316 33.797695 4.270069 -3.391844 3.602660 -2.815394 1.518880 -1.566300 -2.208300 0.244050 
-1.787020 17.007140 -2.404590 1.727968 13.038194 -0.070552 -14.475129 12.733716 3.249934 1.491864 -2.489288 -7.373245 -13.666197 4.868294 4.649365 1.850238 2.912213 3.959048 2.432930 1.753330 2.504220 18.943036 -11.212021 2.508490 -6.399904 0.036369 -14.753800 9.551860 -5.742447 16.117606 -1.246213 -3.420924 2.525870 0.192950 -0.905130 1.305130 -5.811785 -0.672223 -7.331470 15.508855 -4.667125 18.371601 -19.882500 -8.992781 -15.285421 -7.041333 -7.237595 -13.939727 -21.891648 15.006928 24.910240 19.986170 5.477380 -1.538810 10.229823 6.743400 6.487281 -14.443126 -31.115317 -0.638735 82.823161 -12.949470 -13.386611 -2.705738 4.590025 0.118180 -0.532100 1.150970 0.637490 7.845566 -16.831266 -0.158985 57.583566 -31.098453 -13.343011 35.067985 6.807026 -2.741993 3.562024 -2.816299 1.525120 -1.544150 -2.216930 0.315440 
-1.781740 17.015830 -2.387270 1.571533 12.997976 1.428278 -14.486025 12.727640 3.258343 1.418459 -2.589192 -8.685671 -13.965709 4.831796 4.459590 1.847911 2.857725 3.981434 2.429300 1.767600 2.439360 18.942037 -11.125489 2.513861 -6.244185 0.351393 -16.316454 9.959417 -5.857113 16.690762 -1.223101 -3.372975 2.539834 0.205850 -0.852860 1.296570 -5.791522 -0.733111 -7.219970 16.669814 -4.508384 16.718418 -20.732801 -9.585338 -16.561762 -6.849582 -7.903223 -13.859104 -23.308530 16.149372 23.018569 22.164390 4.430450 -1.210320 11.080623 9.177441 7.027245 -21.319375 -29.576480 2.028406 88.916316 -15.561949 -17.103952 -2.730278 4.622897 0.099710 -0.530750 1.128060 0.670410 6.941066 -19.101277 -1.342991 54.758771 -29.427848 -10.550017 35.990176 2.130877 -3.228164 3.557374 -2.833839 1.525350 -1.514390 -2.201190 0.354050 
-1.781710 17.008290 -2.333670 2.007909 11.879224 5.107460 -14.565488 12.871364 3.357954 0.127794 -2.750763 -11.809507 -13.615879 4.575479 4.076921 1.878984 2.615980 4.112419 2.323800 1.712640 2.188950 18.856496 -10.878649 2.601312 -5.833536 1.313546 -19.890640 9.707161 -5.473310 17.028335 -1.079683 -3.095336 2.698535 0.178430 -0.651730 1.253040 -5.529382 -1.211681 -7.104228 16.373408 -3.541920 12.986530 -19.953594 -9.901365 -18.951007 -5.985317 -9.507251 -14.017398 -25.699025 19.068641 17.498502 26.243560 1.853090 2.210940 12.814378 15.489391 7.783262 -28.891626 -22.335674 5.265755 97.333211 -23.922780 -25.955686 -2.807689 4.661405 0.003830 -0.476070 1.010450 0.762180 4.534800 -23.033113 -2.095361 51.213743 -30.736534 -8.826596 38.433321 3.581188 -2.331350 3.448818 -2.886391 1.500440 -1.429920 -2.135030 0.474220 
